<?xml version="1.0" encoding="UTF-8"?>
<svg id="Layer_2" data-name="Layer 2" xmlns="http://www.w3.org/2000/svg" viewBox="0 0 11.9 11.9">
  <defs>
    <style>
      .cls-1 {
        fill: #e00034;
      }
    </style>
  </defs>
  <g id="Layer_2-2" data-name="Layer 2">
    <path class="cls-1" d="M1.77,10.79s.06.04.18.07h.57s.16-.07.25-.03l.06.03h.18c.05-.01.13-.02.2,0,0,0,.4,0,.53-.11l.13-.11s.05-.04.08-.26c0,0,0-.03-.01-.07,0,0-.02-.07-.01-.14,0,0-.01-.01.08-.2,0,0,.05-.16.11-.27,0,0,.07-.1.1-.39,0,0,.02-.25.16-.43,0,0,.07-.05.09-.17,0,0,.09-.25.22-.31,0,0,.33-.1.34.07l-.06.26s-.09.33.03.33c0,0,.08.02.13-.04,0,0,.06-.08.08.06,0,0,.05.26.09.31,0,0,.02.13.11.11,0,0,.12-.06.2.08l.16.22.17.27s-.07-.02-.31.01c0,0-.24.03-.44-.01,0,0-.29-.04-.5.33,0,0-.23.02-.32.27,0,0-.07.13-.01.19h2.52c.27-.02.67-.06.87-.09,0,0,.57-.09.8-.24.02-.01.19-.15.39-.2,0,0,.06-.04.04-.09,0,0,0-.03.13-.07,0,0,.15-.03.25-.12,0,0,.17-.16.25-.24,0,0,.22-.19.24-.41,0,0-.02-.09.06-.23l.06-.15s.01-.07.05-.06c0,0,.04.03.05-.03,0,0,.01-.12.04-.2l.09-.35s.06-.12-.02-.22c0,0-.04-.16-.02-.27,0,0-.01-.22-.11-.37,0,0-.06-.08-.16-.18,0,0-.09-.09-.08-.22v-.29s.02-.1.02-.1c0,0,0-.08-.03-.12l-.07-.09s-.05-.07.03-.18l.05-.08s.05-.1-.06-.1c0,0-.11,0-.05-.12l.02-.11s.06-.19-.1-.1c0,0-.12.1-.2.21,0,0-.03.06-.12.14,0,0-.1.09-.17.25l-.1.25s-.02.09-.02.15l-.02.22s-.01.25.04.32c0,0,.19.43.18.58,0,0-.04.21,0,.33,0,0,.11.17.07.39,0,0-.02.4-.1.51,0,0-.1.24-.26.22,0,0-.14,0-.06-.2,0,0,.01-.08-.02-.36,0,0,.01-.21-.1-.32,0,0-.06-.05-.06-.18,0,0,.03-.14-.13-.2,0,0-.29-.13-.56-.41,0,0-.15-.11-.29-.17-.13-.06-.1-.19-.03-.18,0,0,.15.02,0-.11l-.19-.2s-.14-.15-.01-.09c0,0,.22.06.11-.12,0,0-.08-.12-.38-.24,0,0-.07-.03-.11-.07,0,0-.05-.07.03-.04,0,0,.11.03.07-.05,0,0-.02-.1-.36-.32,0,0-.21-.13-.56-.35,0,0-.2-.11-.15-.14,0,0,.1-.03,0-.14l-.1-.08s-.11-.1,0-.08c0,0,.07.04.09,0,0,0,.05-.01-.08-.13,0,0-.13-.08-.24-.1,0,0-.12-.04-.09-.09,0,0,.02-.03.08-.02,0,0,.07.04.02-.12,0,0-.04-.19-.24-.75,0,0-.04-.09,0-.09,0,0,.4-.01.51-.09,0,0,.23-.09.24-.22,0,0,.02-.07-.15-.15,0,0-.15-.12-.32-.43,0,0-.13-.19-.28-.25,0,0-.07-.03-.09-.1l-.06-.17s-.11-.26-.39-.47c0,0-.13-.1-.15-.18,0,0-.01-.06-.1-.03,0,0-.15.1-.27-.13l-.15-.22s-.05-.08-.06-.16c0,0-.05-.15-.19-.27,0,0-.13-.18-.27-.13,0,0-.1.01-.11.07l-.03.09s-.11.19-.14.3c0,0-.11.27.03.46,0,0,.05.09-.03.07l-.2-.08s-.2-.06-.21.08c0,0,0,.26.07.39,0,0,.09.12.16.44l.04.14s.02.12-.05.19c0,0-.26.3-.29.38,0,0-.04.07.02.08,0,0,.12.03.03.15l-.13.19s-.04.07.02.07c0,0,.09-.03.04.08,0,0-.09.16-.11.32,0,0-.03.08.05.07,0,0,.09-.02.04.09l-.09.18s-.06.14.02.14c0,0,.12-.02.04.08,0,0-.19.29-.22.39,0,0-.07.16.07.12,0,0,.13-.13.1.02,0,0-.19.3-.2.44,0,0-.02.1.03.08,0,0,.11-.05.06.09l-.05.29s-.02.09.09.08c0,0,.12-.06.04.15,0,0-.06.18.03.2,0,0,.1,0,.14.14,0,0,.11.58.02.86,0,0-.05.22-.05.28,0,0-.03.65-.18,1.12,0,0-.27.59-.29.78,0,0,0,.19-.15.18,0,0-.21-.06-.66.27,0,0-.23.2-.01.28ZM11.9,11.9H0V0h11.9v11.9Z"/>
  </g>
</svg>