<?xml version="1.0" encoding="UTF-8"?><svg id="Layer_2" xmlns="http://www.w3.org/2000/svg" viewBox="0 0 27 27"><defs><style>.cls-1{fill:#82786f;}</style></defs><path class="cls-1" d="M17,12.34l4.86-4.84c-.25-.4-.6-.84-1.06-1.3-.46-.47-.89-.81-1.29-1.05l-4.86,4.84c-.17.17-.39.41-.65.71-.2.22-.35.37-.5.53-.15-.15-.31-.3-.5-.53-.26-.3-.48-.54-.65-.71l-4.86-4.84c-.39.25-.82.6-1.29,1.06-.47.46-.83.89-1.06,1.29l4.86,4.84c.17.17.4.4.69.67.21.2.36.34.51.49-.16.15-.31.29-.51.49-.29.28-.52.5-.69.67l-4.86,4.84c.23.4.58.84,1.06,1.3.47.47.9.81,1.29,1.05l4.86-4.84c.19-.17.41-.41.66-.71.19-.22.34-.37.49-.52.15.15.3.3.49.52.26.3.48.54.66.71l4.86,4.84c.4-.23.83-.58,1.29-1.05.46-.46.81-.9,1.06-1.3l-4.86-4.84c-.17-.17-.4-.4-.69-.67-.21-.2-.36-.34-.51-.49.16-.15.31-.29.51-.49.29-.28.52-.5.69-.67Z"/></svg>