<?xml version="1.0" encoding="UTF-8"?>
<svg id="Layer_2" data-name="Layer 2" xmlns="http://www.w3.org/2000/svg" viewBox="0 0 17.9 18.04">
  <g id="Layer_2-2" data-name="Layer 2">
    <path d="M.1,18.04c-.07-.26-.1-.53-.1-.82,0-.13.01-.28.03-.44.02-.16.05-.29.07-.38h17.69c.03.1.05.22.07.38s.03.31.03.44c0,.12-.01.26-.03.43-.02.17-.05.29-.07.39H.1ZM8.94,14.95c-.28,0-.5-.03-.68-.1L1.66,8.24c.15-.23.34-.46.59-.69.25-.23.49-.42.73-.58l3.82,3.94c.23.23.44.46.65.7s.41.49.6.75c0-.22-.02-.42-.03-.62,0-.19-.01-.37-.01-.54V.1c.12-.03.27-.05.45-.07.18-.02.34-.03.47-.03s.3.01.48.03c.18.02.33.05.44.07v11.63c0,.19,0,.4-.03.62.2-.26.4-.51.61-.75.21-.24.42-.47.64-.69l3.82-3.94c.24.17.49.36.73.58.25.23.44.46.59.69l-6.6,6.6c-.17.07-.4.1-.69.1Z"/>
  </g>
</svg>