<?xml version="1.0" encoding="UTF-8"?>
<svg id="Layer_2" data-name="Layer 2" xmlns="http://www.w3.org/2000/svg" viewBox="0 0 221.76 85.2">
  <defs>
    <style>
      .cls-1 {
        fill: #82786f;
      }
    </style>
  </defs>
  <g id="Capa_1" data-name="Capa 1">
    <g>
      <path class="cls-1" d="M18.11,61.68H0v-1.96h.54c.99,0,1.78-.03,2.37-.08.51-.05.9-.18,1.18-.38.24-.18.4-.5.49-.94.11-.54.16-1.34.16-2.35V6.99c0-1.01-.06-1.8-.16-2.35-.09-.45-.26-.76-.49-.94-.27-.2-.66-.32-1.18-.37-.6-.06-1.39-.09-2.37-.09h-.54v-1.96h18.11v1.96h-.54c-.97,0-1.76.03-2.37.09-.51.05-.9.17-1.17.37-.24.18-.41.5-.49.94-.11.54-.17,1.33-.17,2.35v48.98c0,1.02.06,1.81.17,2.35.08.44.25.76.49.94.27.2.66.33,1.17.38.59.06,1.38.09,2.37.09h.54v1.96Z"/>
      <path class="cls-1" d="M46.61,61.68h-22.92v-1.96h.55c.92,0,1.69-.03,2.27-.08.51-.05.9-.18,1.17-.38.25-.18.43-.51.55-.97.13-.54.2-1.32.2-2.33V6.99c0-1-.07-1.78-.2-2.32-.11-.45-.3-.78-.57-.96-.3-.21-.71-.34-1.23-.39-.6-.06-1.36-.09-2.27-.09h-.54v-1.96h21.17c2.59,0,5.19.22,7.73.67,2.57.44,4.89,1.27,6.89,2.43,2.03,1.18,3.7,2.82,4.97,4.87,1.28,2.07,1.92,4.7,1.92,7.82,0,3.99-1.09,7.07-3.24,9.15-1.69,1.65-3.95,2.91-6.72,3.78,1.19.33,2.35.75,3.45,1.25,1.77.81,3.34,1.86,4.67,3.13,1.34,1.27,2.41,2.78,3.19,4.51.79,1.73,1.19,3.7,1.19,5.87,0,3.19-.66,5.89-1.97,8.04-1.3,2.14-3.02,3.89-5.13,5.21-2.1,1.31-4.5,2.26-7.15,2.83-2.63.56-5.31.84-7.97.84M36.98,54.87c.24.42.56.75,1.01.97.52.26,1.11.43,1.75.52.68.08,1.36.12,2.04.12h1.84c1.95,0,3.92-.17,5.87-.52,1.92-.33,3.65-.96,5.17-1.86,1.5-.89,2.72-2.09,3.64-3.55.91-1.45,1.37-3.34,1.37-5.62,0-2.62-.57-4.72-1.69-6.25-1.14-1.55-2.61-2.77-4.36-3.6-1.78-.84-3.82-1.42-6.07-1.7-2.27-.29-4.51-.43-6.64-.43h-3.93v21.93ZM37.07,27.47h7.88c1.76,0,3.46-.18,5.05-.56,1.56-.36,2.95-.96,4.11-1.8,1.15-.81,2.06-1.9,2.72-3.21.66-1.32,1-2.98,1-4.93s-.4-3.68-1.2-5.02c-.81-1.35-1.85-2.44-3.12-3.24-1.29-.81-2.79-1.38-4.47-1.72-1.71-.34-3.48-.51-5.25-.51-.47,0-1.07-.02-1.78-.05-.68-.02-1.36-.01-2.04.04-.67.06-1.29.17-1.87.33-.44.12-.78.32-1.05.57v20.09Z"/>
      <path class="cls-1" d="M113.93,61.68h-41v-1.96h.54c2.16,0,2.83-.36,3.03-.57.21-.22.56-.93.56-3.18V6.99c0-2.25-.35-2.96-.56-3.18-.16-.17-.78-.58-3.03-.58h-.54v-1.96h40.22l.1,10.11h-2.25l-.06-.47c-.27-2.01-.86-3.24-1.75-3.65-1.01-.46-2.51-.7-4.47-.7h-17.73c-.98,0-1.26.11-1.32.13.03.01-.07.3-.07,1.35v19.52h17.27c.91,0,1.71-.04,2.39-.13.61-.07,1.11-.24,1.47-.48.35-.23.61-.58.81-1.06.22-.54.38-1.29.49-2.23l.05-.48h2.17v14.32h-2.17l-.05-.48c-.11-1-.28-1.78-.5-2.32-.19-.48-.47-.86-.82-1.12-.36-.26-.84-.44-1.42-.51-.65-.09-1.46-.13-2.43-.13h-17.27v22.32c0,.53.21.7.28.76.24.2.53.32.87.37.41.06.84.06,1.3.04.51-.03.95-.05,1.31-.05h14.48c1.37,0,2.57-.07,3.56-.21.95-.13,1.82-.42,2.57-.85.76-.44,1.45-1.02,2.04-1.76.61-.74,1.2-1.78,1.77-3.07l.14-.33h2.43l-2.42,11.51Z"/>
      <path class="cls-1" d="M168.05,61.68h-10.72l-.14-.32c-1.4-3.07-2.8-5.87-4.19-8.33-1.39-2.44-2.91-4.77-4.52-6.9-1.62-2.14-3.41-4.21-5.31-6.17-1.88-1.93-4.04-3.97-6.4-6.06l-5.57.08v21.98c0,.96.06,1.72.16,2.26.1.47.25.82.46,1.03.21.2.54.33.99.38.56.06,1.3.08,2.23.08h.54v1.96h-17.06v-1.96h.55c.84,0,1.54-.05,2.06-.13.44-.07.77-.21.97-.42.21-.21.35-.54.42-.97.08-.52.12-1.28.12-2.24V6.99c0-.91-.05-1.64-.12-2.2-.07-.46-.21-.8-.42-1.01-.21-.2-.54-.34-.97-.42-.53-.08-1.22-.13-2.06-.13h-.55v-1.96h21.52c2.6,0,5.14.29,7.54.85,2.42.56,4.59,1.49,6.46,2.75,1.87,1.27,3.4,2.95,4.51,5.01,1.12,2.05,1.69,4.62,1.69,7.62,0,2.3-.44,4.33-1.29,6.07-.85,1.73-2.02,3.21-3.48,4.39-1.44,1.16-3.12,2.12-4.98,2.84-1.49.58-3.04,1.02-4.64,1.33,1.29,1.09,2.38,2.05,3.24,2.86,1.06,1,2,1.97,2.8,2.88.8.92,1.58,1.86,2.35,2.83.75.96,1.66,2.08,2.71,3.37,1.19,1.48,2.33,3.17,3.39,5.02,1.06,1.85,2.03,3.57,2.94,5.17.88,1.58,1.73,2.94,2.48,4.04.64.93,1.24,1.43,1.75,1.43h.54v1.96ZM131.19,28.7h3.67c2.06,0,4.11-.19,6.09-.56,1.94-.36,3.73-1.02,5.31-1.95,1.55-.91,2.82-2.16,3.76-3.71.94-1.54,1.41-3.51,1.41-5.85,0-2.06-.39-3.76-1.15-5.07-.77-1.31-1.81-2.36-3.1-3.09-1.31-.76-2.82-1.28-4.51-1.56-1.73-.29-3.5-.42-5.27-.42h-1.75c-.57,0-1.17.03-1.79.08-.59.05-1.14.18-1.64.4-.42.17-.75.39-1.03.67v21.07Z"/>
      <path class="cls-1" d="M193.4,62.74c-4.56,0-8.65-.83-12.16-2.47-3.51-1.63-6.51-3.9-8.91-6.71-2.41-2.81-4.24-6.16-5.46-9.95-1.21-3.77-1.82-7.84-1.82-12.08,0-5.25.81-9.88,2.41-13.79,1.6-3.91,3.76-7.23,6.44-9.86,2.68-2.64,5.75-4.64,9.14-5.94,3.31-1.28,6.72-1.93,10.14-1.93h.24c3.5.03,6.99.71,10.37,2.01,3.39,1.3,6.47,3.29,9.14,5.9,2.68,2.62,4.84,5.93,6.44,9.87,1.6,3.93,2.41,8.55,2.41,13.74,0,4.25-.63,8.3-1.87,12.04-1.24,3.76-3.09,7.11-5.49,9.95-2.41,2.84-5.42,5.12-8.92,6.75-3.51,1.63-7.57,2.47-12.08,2.47M193.4,5.34c-3.56,0-6.59.8-9,2.36-2.44,1.59-4.45,3.65-5.98,6.14-1.54,2.51-2.67,5.35-3.36,8.42-.69,3.1-1.04,6.21-1.04,9.25s.35,6.18,1.04,9.3c.69,3.11,1.81,5.94,3.35,8.42,1.53,2.46,3.55,4.5,5.97,6.05,2.42,1.54,5.45,2.33,9.02,2.33s6.52-.78,8.97-2.33c2.47-1.55,4.48-3.6,6.01-6.08,1.54-2.51,2.67-5.34,3.36-8.42.69-3.1,1.04-6.22,1.04-9.26s-.36-6.08-1.09-9.21c-.72-3.11-1.86-5.96-3.4-8.47-1.53-2.49-3.54-4.55-5.98-6.14-2.42-1.57-5.42-2.36-8.91-2.36"/>
      <path class="cls-1" d="M13.95,84.56c-.62.32-1.93.64-3.58.64-3.81,0-6.67-2.41-6.67-6.86s2.87-7.1,7.07-7.1c1.66,0,2.75.36,3.22.6l-.44,1.43c-.64-.32-1.59-.56-2.72-.56-3.17,0-5.28,2.03-5.28,5.58,0,3.33,1.91,5.43,5.19,5.43,1.08,0,2.17-.22,2.87-.56l.34,1.4Z"/>
      <rect class="cls-1" x="16.14" y="71.46" width="1.77" height="13.52"/>
      <path class="cls-1" d="M22.71,71.46v8.03c0,3,1.34,4.29,3.15,4.29,1.99,0,3.3-1.32,3.3-4.29v-8.03h1.76v7.9c0,4.16-2.19,5.84-5.12,5.84-2.77,0-4.86-1.56-4.86-5.78v-7.96h1.77Z"/>
      <path class="cls-1" d="M33.96,71.66c1.07-.18,2.33-.3,3.71-.3,2.51,0,4.3.6,5.49,1.68,1.22,1.1,1.93,2.67,1.93,4.85s-.7,4.02-1.95,5.26c-1.28,1.27-3.38,1.95-6.01,1.95-1.27,0-2.29-.06-3.17-.16v-13.28ZM35.71,83.62c.44.06,1.09.08,1.76.08,3.76,0,5.77-2.09,5.77-5.74.02-3.19-1.78-5.22-5.48-5.22-.9,0-1.59.08-2.05.18v10.7Z"/>
      <path class="cls-1" d="M49.25,80.73l-1.41,4.25h-1.81l4.62-13.52h2.09l4.62,13.52h-1.87l-1.45-4.25h-4.8ZM53.71,79.36l-1.35-3.89c-.3-.88-.5-1.68-.7-2.47h-.05c-.19.78-.4,1.63-.68,2.45l-1.33,3.91h4.1Z"/>
      <path class="cls-1" d="M59.35,71.66c1.06-.18,2.33-.3,3.71-.3,2.51,0,4.3.6,5.49,1.68,1.22,1.1,1.92,2.67,1.92,4.85s-.7,4.02-1.95,5.26c-1.28,1.27-3.37,1.95-6.01,1.95-1.26,0-2.29-.06-3.17-.16v-13.28ZM61.1,83.62c.44.06,1.09.08,1.77.08,3.76,0,5.76-2.09,5.76-5.74.02-3.19-1.79-5.22-5.48-5.22-.9,0-1.59.08-2.05.18v10.7Z"/>
      <path class="cls-1" d="M76.99,71.66c1.06-.18,2.33-.3,3.71-.3,2.51,0,4.3.6,5.49,1.68,1.22,1.1,1.92,2.67,1.92,4.85s-.7,4.02-1.95,5.26c-1.28,1.27-3.38,1.95-6.01,1.95-1.26,0-2.29-.06-3.17-.16v-13.28ZM78.74,83.62c.44.06,1.09.08,1.77.08,3.75,0,5.76-2.09,5.76-5.74.02-3.19-1.79-5.22-5.48-5.22-.9,0-1.58.08-2.05.18v10.7Z"/>
      <polygon class="cls-1" points="97.36 78.64 92.12 78.64 92.12 83.52 97.98 83.52 97.98 84.98 90.35 84.98 90.35 71.46 97.69 71.46 97.69 72.92 92.12 72.92 92.12 77.2 97.36 77.2 97.36 78.64"/>
      <path class="cls-1" d="M115.92,79.05c-.1-1.89-.22-4.17-.22-5.84h-.04c-.48,1.57-1.03,3.27-1.71,5.14l-2.39,6.56h-1.33l-2.21-6.44c-.64-1.92-1.16-3.65-1.55-5.26h-.04c-.05,1.68-.14,3.93-.26,5.98l-.36,5.8h-1.67l.95-13.52h2.23l2.31,6.54c.57,1.66,1.01,3.15,1.37,4.55h.04c.36-1.37.84-2.85,1.45-4.55l2.41-6.54h2.23l.85,13.52h-1.73l-.32-5.94Z"/>
      <path class="cls-1" d="M127.66,78.64h-5.24v4.88h5.87v1.46h-7.64v-13.52h7.34v1.46h-5.57v4.28h5.24v1.44ZM127.34,68.39l-2.58,2.35h-1.42l1.87-2.35h2.13Z"/>
      <path class="cls-1" d="M137.97,84.98l-1.75-2.99c-.7-1.14-1.12-1.88-1.55-2.66h-.04c-.38.78-.78,1.51-1.47,2.68l-1.63,2.97h-2.01l4.14-6.84-3.98-6.68h2.03l1.79,3.17c.5.88.88,1.56,1.25,2.28h.06c.39-.8.73-1.42,1.23-2.28l1.83-3.17h2.03l-4.12,6.58,4.22,6.94h-2.03Z"/>
      <rect class="cls-1" x="142" y="71.46" width="1.77" height="13.52"/>
      <path class="cls-1" d="M156.27,84.56c-.62.32-1.93.64-3.58.64-3.81,0-6.67-2.41-6.67-6.86s2.87-7.1,7.07-7.1c1.67,0,2.75.36,3.22.6l-.44,1.43c-.64-.32-1.59-.56-2.71-.56-3.17,0-5.28,2.03-5.28,5.58,0,3.33,1.9,5.43,5.18,5.43,1.08,0,2.17-.22,2.87-.56l.34,1.4Z"/>
      <path class="cls-1" d="M169.63,78.08c0,4.63-2.83,7.12-6.29,7.12s-6.09-2.79-6.09-6.88c0-4.3,2.65-7.1,6.27-7.1s6.11,2.83,6.11,6.86M159.1,78.28c0,2.91,1.56,5.5,4.33,5.5s4.34-2.55,4.34-5.62c0-2.71-1.41-5.52-4.32-5.52s-4.36,2.69-4.36,5.64"/>
    </g>
  </g>
</svg>