<?xml version="1.0" encoding="UTF-8"?>
<svg id="Layer_1" xmlns="http://www.w3.org/2000/svg" version="1.1" viewBox="0 0 113.4 113.4">
  <!-- Generator: Adobe Illustrator 29.0.1, SVG Export Plug-In . SVG Version: 2.1.0 Build 192)  -->
  <defs>
    <style>
      .st0 {
        fill: #fff;
      }
    </style>
  </defs>
  <path class="st0" d="M78.6,53.4v-1.6c0-9.6,0-19.2,0-28.7h0c-.2-2.5,1.5-4.9,4-5.3,1.3-.2,2.7,0,3.8.9,1.1.8,1.8,2.1,1.9,3.4,0,.3,0,.6,0,.9v67.4c.2,2.4-1.3,4.6-3.6,5.2-1.5.4-3.1,0-4.3-.9-1.2-1-1.9-2.5-1.8-4,0-3.1,0-6.2,0-9.3v-21.4c-.6.4-1,.6-1.4.9-15.9,10.6-31.8,21.2-47.8,31.8-.5.3-1,.6-1.5.8-.7.2-1.5,0-2.1-.4-.6-.4-.9-1.1-1-1.9,0-.4,0-.8,0-1.1V23.2c0-.3,0-.6,0-.9h0c0-.9.4-1.8,1.3-2.3.8-.4,1.9-.3,2.6.2,1.5.9,2.9,1.9,4.4,2.9,14.7,9.8,29.3,19.5,44,29.3.4.3.8.5,1.4.9h0Z"/>
</svg>