<?xml version="1.0" encoding="UTF-8"?>
<svg id="Layer_1" xmlns="http://www.w3.org/2000/svg" version="1.1" viewBox="0 0 113.4 113.4">
  <!-- Generator: Adobe Illustrator 29.0.1, SVG Export Plug-In . SVG Version: 2.1.0 Build 192)  -->
  <defs>
    <style>
      .st0 {
        fill: #fff;
      }
    </style>
  </defs>
  <path class="st0" d="M34.8,60v1.5c0,9.6,0,19.2,0,28.8.2,2.6-1.5,4.9-4,5.3-1.4.2-2.7,0-3.8-.9s-1.8-2.1-1.9-3.5c0-.3,0-.6,0-.9V23c-.2-2.4,1.3-4.6,3.6-5.2,1.5-.4,3.1,0,4.3.9,1.2.9,1.9,2.4,1.9,3.9,0,2.4,0,4.9,0,7.3v23.5c.5-.3.9-.5,1.2-.8,15.9-10.6,31.8-21.2,47.7-31.8.3-.2.7-.5,1.1-.7.7-.4,1.6-.4,2.4,0,.7.4,1.2,1.2,1.2,2,0,.4,0,.8,0,1.3v66.8c0,.4,0,.8,0,1.3,0,.8-.5,1.6-1.2,2-.7.4-1.6.4-2.3,0-.4-.2-.9-.5-1.3-.8-15.9-10.6-31.7-21.1-47.6-31.7-.4-.2-.8-.5-1.3-.8h0Z"/>
</svg>