<?xml version="1.0" encoding="UTF-8"?>
<svg id="Layer_2" data-name="Layer 2" xmlns="http://www.w3.org/2000/svg" viewBox="0 0 17.69 18.04">
  <g id="Layer_2-2" data-name="Layer 2">
    <path d="M1.27,18.04c-.4,0-.71-.11-.94-.33-.23-.22-.34-.53-.34-.93V7.9c.15-.04.29-.07.44-.08.14-.01.31-.02.5-.02s.34,0,.48.03c.14.02.28.04.43.08v8.05c0,.15,0,.31-.03.48.17-.02.33-.03.48-.03h13.1c.15,0,.31,0,.47.03,0-.17-.02-.33-.02-.48s0-.3,0-.46v-7.59c.15-.04.29-.07.44-.08.14-.01.31-.02.49-.02.19,0,.36,0,.5.03.14.02.28.04.42.08v8.88c0,.4-.11.71-.33.93-.22.22-.53.33-.93.33H1.27ZM8.84,11.91c-.14,0-.3-.01-.48-.03-.18-.02-.33-.05-.44-.07V3.74c0-.16,0-.33,0-.53,0-.2.01-.4.02-.61-.19.26-.39.51-.6.74-.21.23-.43.47-.64.7l-1.25,1.36c-.24-.16-.49-.36-.73-.59-.25-.23-.44-.46-.59-.68L8.15.1c.17-.07.4-.1.69-.1s.5.03.68.1l4.03,4.03c-.14.23-.33.45-.58.68-.25.23-.5.43-.75.59l-1.25-1.36c-.22-.23-.43-.47-.64-.7s-.41-.48-.6-.74c.02.21.03.41.03.61v8.59c-.11.03-.26.05-.44.07-.18.02-.34.03-.48.03Z"/>
  </g>
</svg>