<?xml version="1.0" encoding="UTF-8"?>
<svg id="Layer_2" data-name="Layer 2" xmlns="http://www.w3.org/2000/svg" viewBox="0 0 15.48 15.33">
  <defs>
    <style>
      .cls-1 {
        fill: #1e1e1e;
      }
    </style>
  </defs>
  <g id="Guias">
    <g>
      <g>
        <rect class="cls-1" x=".09" y="5.11" width="3.32" height="10.22"/>
        <path class="cls-1" d="M1.75,0C.68,0-.02.77,0,1.79c-.02.98.68,1.77,1.73,1.77s1.79-.79,1.79-1.77c-.02-1.02-.7-1.79-1.77-1.79Z"/>
      </g>
      <path class="cls-1" d="M11.66,4.87c-1.45,0-2.44.69-2.99,1.31v-1.07h-3.32v10.22h3.32v-5.7c0-.31.04-.63.13-.83.22-.61.76-1.24,1.68-1.24,1.2,0,1.68.94,1.68,2.31v5.46h3.32v-5.88c0-3.14-1.64-4.59-3.82-4.59Z"/>
    </g>
  </g>
</svg>