<?xml version="1.0" encoding="UTF-8"?><svg id="Layer_2" xmlns="http://www.w3.org/2000/svg" viewBox="0 0 27 27"><defs><style>.cls-1{fill:#82786f;}</style></defs><path class="cls-1" d="M13.51,5.15c.31,0,.56.04.76.12l7.38,7.38c-.16.26-.39.52-.66.77-.28.25-.55.47-.82.65l-4.27-4.4c-.25-.25-.49-.51-.73-.78s-.46-.54-.67-.84c0,.24.02.47.03.69,0,.22.01.42.01.6v12.39c-.14.03-.3.06-.5.08-.2.02-.38.04-.53.04s-.33-.01-.54-.04c-.2-.02-.37-.05-.49-.08v-12.99c0-.22,0-.45.03-.69-.22.29-.45.57-.68.84-.23.27-.47.53-.71.77l-4.27,4.4c-.27-.18-.54-.4-.82-.65-.28-.25-.5-.51-.66-.77l7.38-7.38c.19-.08.45-.12.77-.12Z"/></svg>