<?xml version="1.0" encoding="UTF-8"?>
<svg id="Layer_2" data-name="Layer 2" xmlns="http://www.w3.org/2000/svg" viewBox="0 0 27 27">
  <defs>
    <style>
      .cls-1 {
        fill: #82786f;
      }
    </style>
  </defs>
  <path class="cls-1" d="M16.62,4.08c-.23-.22-.53-.33-.92-.33h-2.12c-.57,0-1.03.07-1.38.21-.35.14-.67.36-.96.66-.29.29-.63.67-1.03,1.12l-2.43,2.73c-.35.4-.62.68-.82.85s-.54.25-1.03.25h-2.39c-.4,0-.71.11-.93.33s-.33.53-.33.93v5.36c0,.4.11.71.33.93s.53.33.93.33h2.39c.49,0,.83.08,1.03.25.2.17.47.45.82.85l2.43,2.73c.4.45.74.82,1.03,1.12.29.29.6.51.96.66.35.14.81.21,1.38.21h2.12c.39,0,.7-.11.92-.33.23-.22.34-.53.34-.93V5.01c0-.4-.11-.71-.34-.93ZM15.12,21.16c0,.15.01.31.02.48-.17-.02-.32-.03-.47-.03h-.89c-.48,0-.81-.08-1.01-.25-.2-.16-.48-.45-.83-.85l-2.43-2.73c-.4-.45-.74-.82-1.03-1.12-.29-.29-.6-.51-.95-.66s-.81-.21-1.39-.21h-1.55c-.15,0-.31,0-.48.03.02-.17.03-.33.03-.48v-3.7c0-.15,0-.31-.03-.47.17,0,.33.02.48.02s.3,0,.46,0h1.09c.58,0,1.04-.07,1.39-.21s.66-.36.95-.66c.29-.29.63-.67,1.03-1.12l2.43-2.73c.35-.4.63-.68.83-.84.2-.16.54-.25,1.01-.25h.43c.16,0,.31,0,.46,0,.15,0,.31-.01.47-.02,0,.16-.02.32-.02.47,0,.15,0,.31,0,.46v14.4c0,.16,0,.31,0,.46Z"/>
</svg>