<?xml version="1.0" encoding="UTF-8"?>
<svg id="Layer_2" data-name="Layer 2" xmlns="http://www.w3.org/2000/svg" viewBox="0 0 27 27">
  <defs>
    <style>
      .cls-1 {
        fill: #82786f;
      }
    </style>
  </defs>
  <path class="cls-1" d="M16.01,18.18c-.18,0-.34,0-.49.02s-.29.04-.44.08v2.42c0,.16,0,.31,0,.46,0,.15.01.31.02.48-.17-.02-.32-.03-.47-.03h-.89c-.48,0-.81-.08-1.01-.25-.2-.16-.48-.45-.83-.85l-2.42-2.73c-.4-.45-.74-.82-1.03-1.12-.29-.29-.6-.51-.95-.66-.35-.14-.81-.21-1.39-.21h-1.55c-.15,0-.31,0-.48.03.02-.17.03-.33.03-.48v-3.7c0-.15,0-.31-.03-.47.17,0,.33.02.48.02.15,0,.3,0,.45,0h1.09c.58,0,1.04-.07,1.39-.21.35-.14.66-.36.95-.66.29-.29.63-.67,1.03-1.12l2.42-2.73c.36-.4.63-.68.83-.84.2-.16.54-.25,1.01-.25h.43c.16,0,.31,0,.46,0,.15,0,.31-.01.47-.02,0,.16-.02.32-.02.47,0,.15,0,.31,0,.46v2.42c.15.03.29.06.44.08.14.02.31.03.49.03s.36,0,.5-.03c.14-.02.29-.04.44-.08v-3.71c0-.4-.11-.71-.34-.93-.23-.22-.54-.33-.94-.33h-2.12c-.57,0-1.03.07-1.38.21s-.67.36-.96.66c-.29.29-.63.67-1.03,1.12l-2.42,2.73c-.35.4-.62.68-.82.85-.2.16-.54.25-1.03.25h-2.39c-.4,0-.71.11-.93.33-.22.22-.33.53-.33.93v5.36c0,.4.11.71.33.93.22.22.53.33.93.33h2.39c.49,0,.83.08,1.03.25.2.17.47.45.82.85l2.42,2.73c.4.45.74.82,1.03,1.12.29.29.6.51.96.66s.81.21,1.38.21h2.12c.4,0,.71-.11.94-.33.23-.22.34-.53.34-.93v-3.71c-.15-.03-.29-.06-.44-.08-.14-.02-.31-.03-.5-.03Z"/>
  <path class="cls-1" d="M17.57,13.77c-.12-.11-.2-.19-.28-.27.08-.08.16-.15.27-.26.16-.15.29-.27.4-.38l1.74-1.74c-.13-.23-.32-.47-.58-.72s-.5-.45-.72-.58l-1.74,1.74c-.1.1-.23.24-.38.4-.11.12-.19.2-.27.28-.08-.08-.16-.17-.27-.29-.15-.16-.28-.29-.37-.39l-1.74-1.74c-.22.14-.45.33-.71.58-.26.25-.46.49-.6.71l1.76,1.74c.1.1.24.22.4.37.11.11.19.19.27.27-.08.08-.16.16-.28.27-.16.15-.29.28-.39.37l-1.76,1.74c.14.22.34.45.6.71.26.26.5.46.71.58l1.74-1.74c.1-.1.22-.23.37-.39.11-.12.19-.2.27-.29.08.08.16.16.27.28.15.16.27.29.38.4l1.74,1.74c.23-.13.47-.33.72-.58.26-.26.45-.5.58-.71l-1.74-1.74c-.1-.1-.23-.22-.39-.37Z"/>
</svg>