<?xml version="1.0" encoding="UTF-8"?>
<svg id="Layer_2" data-name="Layer 2" xmlns="http://www.w3.org/2000/svg" viewBox="0 0 27 27">
  <defs>
    <style>
      .cls-1 {
        fill: #82786f;
      }
    </style>
  </defs>
  <path class="cls-1" d="M15.65,16.75c.12.29.26.55.43.75.16.21.37.4.61.57.49-.49.91-1.11,1.26-1.87.36-.76.53-1.66.53-2.7s-.18-1.94-.53-2.71c-.36-.77-.78-1.39-1.26-1.87-.24.17-.45.36-.61.57-.17.2-.31.46-.43.76.25.29.48.72.7,1.28s.32,1.22.32,1.97-.11,1.41-.32,1.97-.44.99-.7,1.28Z"/>
  <path class="cls-1" d="M16.03,19.96c-.18,0-.34,0-.49.02-.14.01-.29.04-.44.08v.64c0,.16,0,.31,0,.46s.01.31.02.48c-.16-.02-.32-.03-.47-.03h-.89c-.48,0-.81-.08-1.01-.25-.2-.16-.48-.45-.83-.85l-2.41-2.73c-.4-.45-.74-.82-1.03-1.12-.29-.29-.6-.51-.95-.66-.35-.14-.81-.21-1.39-.21h-1.55c-.15,0-.31,0-.48.03.02-.17.03-.33.03-.48v-3.7c0-.15,0-.31-.03-.47.17,0,.33.02.48.02.15,0,.3,0,.45,0h1.09c.58,0,1.04-.07,1.39-.21.35-.14.66-.36.95-.66.29-.29.63-.67,1.03-1.12l2.41-2.73c.35-.4.63-.68.83-.84.2-.16.54-.25,1.01-.25h.43c.16,0,.31,0,.46,0s.31-.01.47-.02c0,.16-.02.32-.02.47,0,.15,0,.31,0,.46v.64c.15.03.29.06.44.08.14.02.31.03.49.03s.34,0,.49-.03c.14-.02.29-.04.44-.08v-1.92c0-.4-.11-.71-.33-.93s-.53-.33-.93-.33h-2.12c-.57,0-1.03.07-1.38.21s-.67.36-.96.66c-.29.29-.63.67-1.03,1.12l-2.4,2.73c-.35.4-.62.68-.82.85-.2.16-.54.25-1.03.25h-2.39c-.4,0-.71.11-.93.33-.22.22-.33.53-.33.93v5.36c0,.4.11.71.33.93.22.22.53.33.93.33h2.39c.49,0,.83.08,1.03.25.2.17.47.45.82.85l2.4,2.73c.4.45.74.82,1.03,1.12.29.29.6.51.96.66s.81.21,1.38.21h2.12c.4,0,.71-.11.93-.33s.33-.53.33-.93v-1.92c-.15-.03-.29-.06-.44-.08-.14-.02-.31-.03-.49-.03Z"/>
  <path class="cls-1" d="M21.32,10.41c-.32-.89-.71-1.67-1.18-2.33-.46-.66-.92-1.22-1.37-1.68-.25.16-.47.34-.65.54-.18.2-.34.44-.48.72.36.43.72.93,1.08,1.48.36.55.65,1.19.89,1.9.24.71.36,1.53.36,2.45s-.12,1.74-.36,2.45-.54,1.35-.89,1.9c-.36.55-.71,1.05-1.08,1.49.14.27.3.51.48.71.18.21.4.39.65.55.45-.46.91-1.02,1.37-1.68.46-.66.86-1.44,1.18-2.33.32-.9.48-1.93.48-3.09s-.16-2.2-.48-3.09Z"/>
  <path class="cls-1" d="M20.8,22.98c-.15,0-.96-.93-.96-1.16,0-.04,3.35-2.87,3.35-8.32s-3.36-8.29-3.36-8.33c0-.29.71-1.15.96-1.15.19,0,3.9,3.3,3.9,9.49s-3.79,9.48-3.9,9.48Z"/>
</svg>